# xmcd
#
# Track frame offsets: 
#        150
#        19571
#        47490
#        73721
#        97964
#        113227
#        138543
#        162551
#        187292
#        209413
#        234475
#        260711
#        282435
#        302204
#
# Disc length: 4233 seconds
#
# Revision: 0
# Processed by: cddbd v1.5.1PL0 Copyright (c) Steve Scherf et al.
# Submitted via: ExactAudioCopy v0.95a5
#
DISCID=d410870e
DTITLE=jimmy joe band - live at oxis
DYEAR=2004
DGENRE=Blues
TTITLE0=chasmatrans
TTITLE1=lovin' cup
TTITLE2=the trill is gone
TTITLE3=I ain't got the key no more
TTITLE4=few minutes blues
TTITLE5=mother in law
TTITLE6=steamroller blues
TTITLE7=rainbow
TTITLE8=delirio
TTITLE9=nver make your move too soon
TTITLE10=I loved another woman
TTITLE11=that the way
TTITLE12=all along the watchtower
TTITLE13=messin' with the kids
EXTD=
EXTT0=
EXTT1=
EXTT2=
EXTT3=
EXTT4=
EXTT5=
EXTT6=
EXTT7=
EXTT8=
EXTT9=
EXTT10=
EXTT11=
EXTT12=
EXTT13=
PLAYORDER=
